<svg width="32" height="32" xmlns="http://www.w3.org/2000/svg">

 <g>
  <title>background</title>
  <rect fill="none" id="canvas_background" height="402" width="582" y="-1" x="-1"/>
 </g>
 <g>
  <title>Layer 1</title>
  <line id="svg_2" y2="12" y1="10" x2="16" x1="16" stroke-width="2" stroke-miterlimit="10" stroke-linejoin="round" stroke-linecap="round" stroke="#000000" fill="none"/>
  <line id="svg_3" y2="22" y1="20" x2="16" x1="16" stroke-width="2" stroke-miterlimit="10" stroke-linejoin="round" stroke-linecap="round" stroke="#000000" fill="none"/>
  <path id="svg_4" stroke-width="2" stroke-miterlimit="10" stroke-linejoin="round" stroke-linecap="round" stroke="#000000" fill="none" d="m14,20l3,0c1.1,0 2,-0.9 2,-2s-0.9,-2 -2,-2l-2,0c-1.1,0 -2,-0.9 -2,-2s0.9,-2 2,-2l3,0"/>
  <path id="svg_5" stroke-width="2" stroke-miterlimit="10" stroke-linejoin="round" stroke-linecap="round" stroke="#000000" fill="none" d="m16,6c5.5,0 10,4.5 10,10s-4.5,10 -10,10s-10,-4.5 -10,-10l0,-3"/>
  <polyline id="svg_6" stroke-width="2" stroke-miterlimit="10" stroke-linejoin="round" stroke-linecap="round" stroke="#000000" points="    10,17 6,13 2,17   " fill="none"/>
  <path id="svg_7" stroke-width="2" stroke-miterlimit="10" stroke-linejoin="round" stroke-linecap="round" stroke="#000000" fill="none" d="m16,2c7.7,0 14,6.3 14,14s-6.3,14 -14,14"/>
 </g>
</svg>